<svg xmlns="http://www.w3.org/2000/svg" xml:space="preserve" viewBox="0 0 648 216"><g fill="#fff"><path d="M216.1 86.4c0-21.3 13.8-33.4 30.7-33.4 14.5 0 23.3 8.2 23.3 12.2 0 3.5-3.2 8.9-6.5 8.9-4 0-4.6-13.9-16.8-13.9-7.8 0-16 6.2-16 26.1 0 18.4 6.8 25.5 15.8 25.5 7.2 0 11.6-2.1 11.6-8.4V100c0-6.4-7.8-5.9-7.8-9.4 0-2.6 6.1-4.2 12.3-4.2 5.7 0 8 2.5 8 8.2v13.7c0 6-9.2 11.4-24.9 11.4-17.2 0-29.7-12-29.7-33.3zm63.6 8.3c0-15.3 9.2-24.8 23.6-24.8 14.4 0 23.6 9.4 23.6 24.7 0 15.3-9.2 24.8-23.6 24.8-14.4 0-23.6-9.4-23.6-24.7zm33-.1c0-12.7-3.2-18.3-9.4-18.3s-9.4 5.7-9.4 18.3c0 12.6 3.2 18.4 9.4 18.4s9.4-5.8 9.4-18.4zm23.7 11.6c0-10.5.8-33.4.8-42.4 0-8.6-4.7-6.5-4.7-9.6 0-3 6.5-4.6 10.9-4.6 4.9 0 7.1 2.9 7.1 9.3 0 7.8-.9 39.5-.9 44.9 0 9.2 6.4 6.2 6.4 9.6 0 3-4.5 5.7-9.4 5.7-6.1 0-10.2-3.7-10.2-12.9zm24.3-11c0-15.4 9.8-25.5 24.4-25.5 12.8 0 18.9 6.3 18.9 14.1 0 9.4-9 15.1-28.1 15.1-.8 0-1.3.3-1.3.9 0 6.9 5 10.6 11.4 10.6 8.5 0 11.9-5 14.6-5 1.4 0 2.1.7 2.1 2.1 0 4.1-6.8 11.8-19.9 11.8s-22.1-9.2-22.1-24.1zm29.8-11.1c0-5-1.8-8.1-6.4-8.1-5.6 0-9.6 5.2-9.6 14.8 0 2.1.6 2.6 1.7 2.6 10.5.1 14.3-3.4 14.3-9.3zm19.7 26.8c0-2.7 2.3-8.8 4.9-8.8 4.1 0 6 10.9 16 10.9 3.5 0 6.1-1.8 6.1-4.9 0-3.2-2.2-5.4-11.2-9-9-3.5-14.9-8.1-14.9-15.4 0-7.2 6.1-13.7 19-13.7 10.3 0 18.8 3.7 18.8 6.8S446.4 86 444 86c-3.7 0-4.7-9.7-14-9.7-3.8 0-6.4 1.5-6.4 4.5 0 2.9 2 4.8 11.5 8.6 9.2 3.6 14.9 8.2 14.9 15.9 0 7.9-6.2 14.1-20 14.1-11.4-.1-19.8-5.4-19.8-8.5zm51.7-7V80.3c0-1.2-.4-1.8-2.2-1.8-2.9 0-4.5-.2-4.5-2.9 0-2 1.2-2.1 4.4-3.6 3.9-1.9 5.8-4.3 7.8-7.6 1.5-3.6 2.5-5.1 5-5.1h.9c1.3 0 1.9.6 1.9 1.8v8.5c0 1.2.6 1.8 1.8 1.8 3.4 0 7.2-.1 10-.1 1.7 0 2.2 1 2.2 3 0 2.7-1.4 4.3-3.1 4.3h-9c-1.2 0-1.8.6-1.8 1.8v23.4c0 4.4 2 6.4 5.1 6.4 3.5 0 5.1-2 6.8-2 1.4 0 2 .7 2 2.1 0 2.4-4 9.2-13.9 9.2-9.9-.2-13.4-7-13.4-15.6zm30.3-9.4c0-14.6 8.9-24.7 19.9-24.7 9.1 0 12.4 6.1 13.6 6.1 1.4 0 4.5-5.9 8.1-5.9 2.7 0 3.9 1.8 3.9 4.7 0 3.1-1.5 14.8-1.5 22.7 0 16.3 6.3 12.7 6.3 16 0 3.5-6.1 5.4-10 5.4-7.6 0-5.7-8.6-7.2-8.6-1.7 0-4.6 8.7-15.5 8.7-11.3.1-17.6-9.7-17.6-24.4zm30.9-2.5c0-7.9-2.2-15.4-8.1-15.4-6 0-9.1 8-9.1 17.7s2.7 16.7 8.2 16.7c5.7 0 9-8 9-19zm27 22.8c0-2.2 1.3-14 1.3-25.1 0-13.5-6.3-10.9-6.3-14 0-3.5 7-5.3 10.8-5.3 7.9 0 5.7 8.4 7.3 8.4 1.7 0 4.8-8.9 15.9-8.9 10.4 0 14 8.4 14 16.2 0 5.1-1.3 12.8-1.3 17.3 0 9.7 6.4 6.9 6.4 10.1 0 3.1-4.3 5.8-9.2 5.8-6.1 0-10.2-3.9-10.2-12.9 0-6.3 1-14.9 1-19.8 0-5.1-1.7-8.4-5.4-8.4-5.4 0-10.4 6.5-10.4 25.4v11.1c0 2.6-1.4 4.2-7.3 4.2-4.7-.2-6.6-1.8-6.6-4.1zm-298.7 61.1c0-1 .5-8.9.5-18.9v-13.2c0-6.4-2.8-5.3-2.8-6.8s2.6-2 5.7-2c2.2 0 6.6.1 11 .1 4.7 0 8.6-.2 10.8-.2 2.4 0 3.2 2.2 3.2 4.6 0 2.7-.4 3.9-1.8 3.9-2 0-2-4.8-6.5-4.8h-6.6c-3.3 0-6.1-.1-6.5-.1-.8 0-.4.3-.4 3.2v12.6c0 .6.3.8.8.8 4.8 0 11.4-.1 13.4-.1.9 0 1.2.6 1.2 1.5 0 1.3-.6 2.2-1.7 2.2-1.8 0-8-.1-12.8-.1-.6 0-.8.3-.8.8V176c0 1-.8 1.9-3.3 1.9s-3.4-.9-3.4-2zm27.7-13.9c0-10 5.7-16.4 14.8-16.4 9 0 14.7 6.3 14.7 16.3s-5.7 16.3-14.7 16.3c-9.1 0-14.8-6.3-14.8-16.2zm23.1-.1c0-8.5-2.9-13.1-8.4-13.1s-8.4 4.6-8.4 13.1 3 13.1 8.4 13.1c5.4.1 8.4-4.6 8.4-13.1zm13.9 5.9c0-4.3.5-8 .5-12.6 0-6.6-2.7-5.1-2.7-6.7 0-1.5 2.5-2.4 4.6-2.4 2.5 0 4 2.2 4 7 0 5.7-.5 10.3-.5 14.5 0 4.5 2 6.6 5 6.6 4.5 0 8.5-4.8 8.5-14.3 0-4.6-.2-8.2-.2-11.8 0-1.2.7-2 3.3-2 2.1 0 3 .8 3 2 0 1-.3 10.4-.3 16.7 0 10.8 4.1 8.7 4.1 10.4s-2.7 2.6-4.5 2.6c-4.6 0-3.9-6.6-4.5-6.6-.7 0-3.1 7-11.1 7-6.9 0-9.2-5.3-9.2-10.4zm35.8 8.1c0-1 .6-10.6.6-16.8 0-10.8-4.1-8.9-4.1-10.6s3-2.5 4.8-2.5c4.6 0 3.9 6.6 4.5 6.6.7 0 3.1-6.9 11-6.9 6.8 0 9.1 5.2 9.1 9.9 0 4.1-.9 8.6-.9 12.4 0 7.4 3.9 5.7 3.9 7.3 0 1.5-2 2.7-4.1 2.7-3.2 0-5.7-2.4-5.7-8.7 0-4.7.8-9.4.8-13.5s-2-6.2-5-6.2c-4.5 0-8.8 4.8-8.8 16.3v10c0 1.2-.7 2-3.3 2-1.8-.1-2.8-.9-2.8-2zm33.7-14c0-9.6 5.6-16.3 12.9-16.3 6.6 0 8.5 5.3 8.9 5.3.2 0 .3-2.1.3-2.9v-8c0-5.6-2.7-4.5-2.7-6s2.8-2.2 4.8-2.2c2.7 0 3.8 2 3.8 6.4 0 4.9-.4 16.1-.4 24.7 0 13.4 4.1 10.5 4.1 12.3 0 1.7-2.6 2.6-4.4 2.6-4.4 0-3.8-6.6-4.5-6.6-.6 0-2.7 6.9-10.6 6.9-7.9 0-12.2-6.5-12.2-16.2zm21.6-.7c0-6.3-2.6-12.1-7.5-12.1s-7.9 5.1-7.9 12.7 2.7 12.4 7.5 12.4c5.2 0 7.9-5.9 7.9-13zm14.4.7c0-9.6 5.6-16.3 13.1-16.3 6.9 0 9.1 5.8 9.6 5.8s1.7-5.7 4-5.7c1.2 0 1.7.8 1.7 2.2 0 1.7-.9 8.2-.9 14.9 0 13.5 4 10.6 4 12.4 0 1.7-2.6 2.6-4.3 2.6-4.5 0-3.9-6.6-4.6-6.6-.6 0-2.7 6.9-10.6 6.9-7.7 0-12-6.5-12-16.2zm21.5-1.2c0-5.7-2.4-11.7-7.3-11.7-5 0-8 5.5-8 12.9s2.7 12.4 7.4 12.4c5.3-.1 7.9-6.3 7.9-13.6zm17.5 7.9v-17.9c0-.5-.2-.8-1-.8-2.9 0-3.6-.1-3.6-1.4 0-1 .6-1 2.7-1.7 2.3-.8 3.1-2 4-4 .6-3.9 1.3-4.5 2.5-4.5h.4c.6 0 .9.3.9.9v6.5c0 .5.3.8.8.8 2.4 0 6.1-.1 7.3-.1.8 0 1.2.6 1.2 1.5 0 1.3-.6 2.1-1.7 2.1h-6.9c-.6 0-.8.3-.8.8v17.8c0 3.9 1.2 5.5 3.6 5.5 2.7 0 3.9-2.3 5-2.3.7 0 1 .3 1 1 0 1.3-2.5 5.6-8 5.6-5.4-.1-7.4-3.9-7.4-9.8zm22.4 1.5c0-5 .5-9.7.5-13.9 0-7.8-2.6-6.2-2.6-7.7s2.7-2.4 4.7-2.4c2.9 0 3.9 2.2 3.9 6.6 0 5-.6 11.8-.6 16.5 0 6.2 4 4.5 4 6.2 0 1.5-2 2.7-4.3 2.7-3.1-.2-5.6-2.4-5.6-8zm-.9-33.4c0-2 1.8-3.6 4.1-3.6 2.2 0 4.1 1.6 4.1 3.6s-1.9 3.6-4.1 3.6c-2.3 0-4.1-1.6-4.1-3.6zm15.6 25.3c0-10 5.7-16.4 14.8-16.4 9 0 14.7 6.3 14.7 16.3s-5.7 16.3-14.7 16.3c-9.1 0-14.8-6.3-14.8-16.2zm23.1-.1c0-8.5-2.9-13.1-8.4-13.1s-8.4 4.6-8.4 13.1 3 13.1 8.4 13.1c5.4.1 8.4-4.6 8.4-13.1zm14.2 14c0-1 .6-10.6.6-16.8 0-10.8-4.1-8.9-4.1-10.6s3-2.5 4.8-2.5c4.6 0 3.9 6.6 4.5 6.6.7 0 3.1-6.9 11-6.9 6.8 0 9.1 5.2 9.1 9.9 0 4.1-.9 8.6-.9 12.4 0 7.4 3.9 5.7 3.9 7.3 0 1.5-2 2.7-4.1 2.7-3.2 0-5.7-2.4-5.7-8.7 0-4.7.8-9.4.8-13.5s-2-6.2-5-6.2c-4.5 0-8.8 4.8-8.8 16.3v10c0 1.2-.7 2-3.3 2-1.8-.1-2.8-.9-2.8-2zM135.8 54c11.6-2.3 23 5.1 25.3 16.7 2.3 11.6-5.2 22.9-16.9 25.2-11.6 2.3-22.9-5.2-25.2-16.8-2.4-11.5 5.2-22.7 16.8-25.1zM72.7 41.8c8.9.6 15.6 8.3 15 17.2-.6 8.9-8.3 15.6-17.2 14.9-8.9-.6-15.6-8.3-15-17.2.6-8.8 8.3-15.5 17.2-14.9zM135.6 147.9c-22.4 19.7-61.4 15.4-73.3-13.1-1-2.3-1.7-4.7-2.2-7.2.6 30.7 26.3 54.5 59.4 50.5 2.5-.2 4.9-.6 7.4-1.2 3-.6 6-1.4 9-2.4 22.7-7.5 29.7-31.1 12.4-44.8-2.9 7.4-7.3 13.5-12.7 18.2z"/><path d="M128.5 118.8c4.6 2.1 9.1 4.2 13.1 6.8 20.7 13.6 16.8 40.6-5.9 49 38.6-12.3 62.5-51.9 54.4-92.3-3.9-19.4-14.5-35.7-28.9-47.1-6.4-5-15.2 2-7.6 9.4 24.9 24.1 21.1 61.7-19.9 59.5-13-.6-13.8 10.8-5.2 14.7zm-20.7 59.6c-31.9-3.8-51.6-33.8-47.3-64.6 1.4-10.2 5.8-19.7 14-26.9 5.2-4.6 2.6-11.5-4.8-9.2-14.6 4.6-21.1-3.5-18.5-17.6 1.2-6.9-5.9-8.8-8.9-3.3-6.3 11.7-9.8 25-9.8 39.2.1 43.1 33.1 78.4 75.3 82.4z"/></g></svg>