<svg xmlns="http://www.w3.org/2000/svg" xml:space="preserve" viewBox="40 35 161 146"><g fill="#fff"><path d="M144.3 56c11.6-2.3 23 5.1 25.3 16.7 2.3 11.6-5.2 22.9-16.9 25.2-11.6 2.3-22.9-5.2-25.2-16.8-2.3-11.5 5.2-22.8 16.8-25.1zm-63-12.2c8.9.6 15.6 8.3 15 17.2-.6 8.9-8.3 15.6-17.2 14.9-8.9-.6-15.6-8.3-15-17.2.6-8.8 8.3-15.5 17.2-14.9zM144.2 149.8c-22.4 19.7-61.4 15.4-73.3-13.1-1-2.3-1.7-4.7-2.2-7.2.6 30.7 26.3 54.5 59.4 50.5 2.5-.2 4.9-.6 7.4-1.2 3-.6 6-1.4 9-2.4 22.7-7.5 29.7-31.1 12.4-44.8-2.9 7.4-7.3 13.5-12.7 18.2z"/><path d="M137 120.8c4.6 2.1 9.1 4.2 13.1 6.8 20.7 13.6 16.8 40.6-5.9 49 38.6-12.3 62.5-51.9 54.4-92.3-3.9-19.4-14.5-35.7-28.9-47.1-6.4-5-15.2 2-7.6 9.4 24.9 24.1 21.1 61.7-19.9 59.5-12.9-.7-13.7 10.8-5.2 14.7zm-20.6 59.5c-31.9-3.8-51.6-33.8-47.3-64.6 1.4-10.2 5.8-19.7 14-26.9 5.2-4.6 2.6-11.5-4.8-9.2-14.6 4.6-21.1-3.4-18.6-17.6 1.2-6.9-5.9-8.8-8.9-3.3-6.3 11.7-9.8 25-9.8 39.2.2 43.2 33.2 78.5 75.4 82.4z"/></g></svg>